<svg width="1093" height="1179" viewBox="0 0 1093 1179" fill="none" xmlns="http://www.w3.org/2000/svg">
<path d="M879.002 1173.51H371.16C265.667 1173.51 157.019 1149 87.5081 1069.65C43.722 1019.66 4.99998 954.202 5 879.015C5.00006 706.015 138.003 656.015 138.003 656.015C138.003 656.015 -35 -46.4853 108 8.01468C251 62.5147 428.503 593.015 428.503 593.015C531.5 397.515 345.5 72.0146 428.503 37.5146C497.679 8.76201 639.432 326.022 710.791 561.515C725.055 608.587 736.506 652.393 744.002 689.515C744.002 689.515 1034 578.515 1048.5 828.515C1063 1078.51 879.002 1173.51 879.002 1173.51Z" fill="#FE007A"/>
<path d="M428.503 593.015C531.5 397.515 345.5 72.0146 428.503 37.5146C497.679 8.76201 639.432 326.022 710.791 561.515M428.503 593.015C428.503 593.015 251 62.5147 108 8.01468C-35 -46.4853 138.003 656.015 138.003 656.015M428.503 593.015C428.503 594.628 427.244 598.037 424.117 603.639M138.003 656.015C138.003 656.015 5.00006 706.015 5 879.015C4.99998 954.202 43.722 1019.66 87.5081 1069.65C157.019 1149 265.667 1173.51 371.16 1173.51H879.002C879.002 1173.51 1063 1078.51 1048.5 828.515C1034 578.515 744.002 689.515 744.002 689.515C736.506 652.393 725.055 608.587 710.791 561.515M138.003 656.015C163.168 721.681 234.997 829.015 321 733.015C386.191 660.246 414.32 621.185 424.117 603.639M424.117 603.639C460.744 651.597 540.4 741.715 566 718.515C591.6 695.315 673.194 604.181 710.791 561.515" stroke="#FE007A" stroke-width="9"/>
<path d="M586.5 727.515C604.333 755.348 623.5 826.015 598 851.515M459 727.515C482.5 757.015 519 823.115 477 851.515M1010.5 1035.01C1005.83 1006.51 960 950.315 814 953.515C668 956.715 649 977.515 649 977.515" stroke="#22212C" stroke-width="19" stroke-linecap="round"/>
<rect x="887" y="624.515" width="206" height="205" rx="102.5" fill="#22212C"/>
</svg>
